<svg width="944.07806" height="698.0858" xmlns="http://www.w3.org/2000/svg" data-name="Layer 1">
 <title>test22</title>

 <g>
  <title>Layer 1</title>
  <circle id="svg_1" fill="#64ffda" r="130" cy="272.146" cx="398"/>
  <path id="svg_2" fill="#3f3d56" d="m413.99997,381.14642c-72.23389,0 -131,-58.76661 -131,-131.00049s58.76611,-131 131,-131c72.2334,0 131,58.76611 131,131s-58.7666,131.00049 -131,131.00049zm0,-260.00049a129.00025,129.00025 0 1 0 129,129a129.14608,129.14608 0 0 0 -129,-129.00003l0,0.00003z"/>
  <path id="svg_3" fill="#3f3d56" d="m811.00003,441.00049l-811,0l0,-441.00049l811,0l0,441.00049zm-809,-2l807,0l0,-437.00049l-807,0l0,437.00049z"/>
  <rect id="svg_4" fill="#f2f2f2" height="18" width="178" y="35.00009" x="27.00006"/>
  <rect id="svg_5" fill="#f2f2f2" height="18" width="178" y="35.00009" x="294.00006"/>
  <rect id="svg_6" fill="#f2f2f2" height="18" width="178" y="35.00009" x="561.00006"/>
  <path id="svg_7" fill="#3f3d56" d="m217.00003,45l-180,0l0,-20l180,0l0,20zm-178,-2l176,0l0,-16l-176,0l0,16z"/>
  <path id="svg_8" fill="#3f3d56" d="m484.00003,45l-180,0l0,-20l180,0l0,20zm-178,-2l176,0l0,-16l-176,0l0,16z"/>
  <path id="svg_9" fill="#3f3d56" d="m751.00003,45l-180,0l0,-20l180,0l0,20zm-178,-2l176,0l0,-16l-176,0l0,16z"/>
  <rect id="svg_10" fill="#2f2e41" height="2.55433" width="827.6044" y="682.73757" x="116.47367"/>
  <polygon id="svg_11" fill="#3f3d56" points="393.5 483.5 456.5 361.5 473.5 371.5 401.5 488.5 393.5 483.5"/>
  <path id="svg_12" fill="#64ffda" d="m357.00003,509.00009s11.61161,9.12341 12.92976,-10.39714a22.39053,22.39053 0 0 1 8.14625,-16.09c5.25768,-4.20079 12.82409,-7.0739 21.924,-1.51285c8.1,4.95 9.9225,12.1275 9.477,18.52537a28.47033,28.47033 0 0 1 -14.23265,22.2541c-9.02721,5.3584 -23.27736,9.39148 -38.24435,-3.77947c-0.00001,-0.00001 -9.00001,-10.00001 -0.00001,-9.00001z"/>
  <circle id="svg_13" fill="#ffb8b8" r="24.26618" cy="196.77542" cx="468.39689"/>
  <path id="svg_14" fill="#ffb8b8" d="m455.62521,208.2699s6.38584,33.20635 3.83151,39.59218s35.76068,-2.55433 35.76068,-2.55433s-7.663,-33.20635 -6.38584,-40.86935s-33.20635,3.8315 -33.20635,3.8315z"/>
  <polygon id="svg_15" fill="#ffb8b8" points="413.479 323.215 416.033 357.698 428.71 411.854 432.636 426.666 439.022 403.677 432.636 351.313 430.467 327.738 413.479 323.215"/>
  <path id="svg_16" fill="#ffb8b8" d="m547.58126,318.10631l0,35.76069s-3.8315,45.978 -11.49451,57.47252s-10.21734,-45.978 -10.21734,-45.978l6.00472,-42.14652l15.70713,-5.10869z"/>
  <path id="svg_17" fill="#2f2e41" d="m433.91337,429.2199s-6.38584,7.663 -1.27717,85.5702s-2.55433,134.10254 14.04883,134.10254c0,0 -5.10867,16.60317 8.94017,17.88034s20.43468,2.55433 21.71185,-1.27717s3.8315,-21.71184 0,-21.71184c0,0 0,5.10867 2.55433,-15.326s2.55434,-117.49939 8.94017,-130.27106l20.43468,47.25519s0,21.71184 3.8315,31.92918s10.21734,68.967 10.21734,68.967l-1.27717,8.94017s30.652,5.10867 31.92918,0s1.27717,-12.77167 0,-15.326s-1.27716,-2.55434 1.27717,-7.663s2.55434,-8.94017 1.27717,-12.77167s-1.27717,-86.84737 -1.27717,-86.84737s-2.55432,-100.89621 -17.88033,-106.00488s-103.45055,2.55437 -103.45055,2.55437z"/>
  <path id="svg_18" fill="#2f2e41" d="m450.51654,656.55564l-10.21733,17.88034s-15.96459,-5.74725 -12.77168,8.94017c27.4591,1.91576 46.61661,-0.63858 46.61661,-0.63858s6.38584,2.55434 7.663,-1.27717s-3.19292,-17.24175 -7.02442,-17.24175s-24.26618,-7.66301 -24.26618,-7.66301z"/>
  <path id="svg_19" fill="#2f2e41" d="m524.59225,651.44697s-10.21734,22.989 -6.38584,24.26618s38.315,6.38584 40.86935,7.663s15.326,2.55434 16.60318,-5.10866s-6.38584,-10.21734 -6.38584,-10.21734s-14.04884,-2.55434 -17.88034,-15.326s-26.82051,-1.27718 -26.82051,-1.27718z"/>
  <path id="svg_20" fill="#8985a8" d="m497.77173,241.47628s-34.48351,-6.38584 -42.14652,0s-39.59218,19.15751 -39.59218,25.54334s16.60317,68.967 16.60317,68.967s-8.94017,94.51037 0,97.06471s24.26618,-5.10867 42.14652,3.8315s68.967,-7.663 68.967,-7.663s-19.15751,-81.73871 -14.04884,-97.06472s8.94017,-67.68986 8.94017,-67.68986s-21.71181,-22.98897 -40.86932,-22.98897z"/>
  <path id="svg_21" fill="#8985a8" d="m424.9732,263.18812l-8.94017,2.55433s-19.15751,60.02687 -11.49451,62.5812s29.37485,7.663 31.92918,7.663s-11.4945,-72.79853 -11.4945,-72.79853z"/>
  <path id="svg_22" fill="#8985a8" d="m518.20641,256.80228l20.43468,7.663s26.82051,49.80952 20.43467,56.19536s-34.48351,12.77167 -34.48351,12.77167l-6.38584,-76.63003z"/>
  <path id="svg_23" fill="#2f2e41" d="m467.65982,166.8032a13.71573,13.71573 0 0 0 -6.07019,0.268a15.82739,15.82739 0 0 0 -4.31392,2.82986a50.49241,50.49241 0 0 1 -7.37585,4.88674c-2.06956,1.12349 -4.29418,2.16335 -5.739,4.0229a12.21142,12.21142 0 0 0 -1.61977,3.066a36.74032,36.74032 0 0 0 -1.93172,19.99594a9.19109,9.19109 0 0 0 0.85074,2.7457c1.3274,2.44565 4.2592,3.40946 6.72893,4.6915c4.689,2.43406 8.24343,6.53269 12.0893,10.15493a23.63385,23.63385 0 0 0 4.77655,3.68109c5.48668,2.99146 12.193,2.01556 18.35207,0.95775a3.30735,3.30735 0 0 0 3.30082,-3.33888l4.86152,-21.86574a35.67316,35.67316 0 0 0 1.246,-9.94448c-0.33919,-5.30791 -3.21279,-12.6606 -7.10829,-16.431c-4.53898,-4.39312 -12.1141,-5.09219 -18.04719,-5.72031z"/>
  <ellipse id="svg_24" fill="#64ffda" ry="2" rx="35" cy="681.00009" cx="368.00006"/>
  <ellipse id="svg_25" fill="#64ffda" ry="2" rx="35" cy="683.6112" cx="360.00006"/>
  <ellipse id="svg_26" fill="#64ffda" ry="1.08571" rx="19" cy="673.35851" cx="325.35848"/>
  <ellipse id="svg_27" fill="#64ffda" ry="1.08571" rx="19" cy="697.00009" cx="393.00006"/>
 </g>
</svg>