<svg width="693" height="528" xmlns="http://www.w3.org/2000/svg" data-name="Layer 1">

 <g>
  <title>Layer 1</title>
  <path id="svg_1" fill="#f2f2f2" d="m693,283.5l0,221.81a22.71737,22.71737 0 0 1 -22.69,22.69l-170.14,0l1.58,-2l189.25,-239.96l2,-2.54z"/>
  <path id="svg_2" fill="#e6e6e6" d="m270.8118,190.368l-195.3688,0a6.036,6.036 0 0 0 0,12.072l195.3688,0a6.036,6.036 0 0 0 0,-12.072z"/>
  <path id="svg_3" fill="#e6e6e6" d="m136.01753,163.52356l-60.57453,0a6.036,6.036 0 0 0 0,12.072l60.57458,0a6.036,6.036 0 0 0 0,-12.072l-0.00005,0z"/>
  <path id="svg_4" fill="#e6e6e6" d="m670.31,0l-647.62,0a22.71737,22.71737 0 0 0 -22.69,22.69l0,482.62a22.71737,22.71737 0 0 0 22.69,22.69l647.62,0a22.71737,22.71737 0 0 0 22.69,-22.69l0,-482.62a22.71737,22.71737 0 0 0 -22.69,-22.69zm20.69,505.31a20.69,20.69 0 0 1 -20.69,20.69l-647.62,0a20.69,20.69 0 0 1 -20.69,-20.69l0,-347.63446a155.67554,155.67554 0 0 1 155.67554,-155.67554l512.63446,0a20.69,20.69 0 0 1 20.69,20.69l0,482.62z"/>
  <path id="svg_5" fill="#e6e6e6" d="m629.89049,87.26853l-566.73049,0a1,1 0 0 1 0,-2l566.73049,0a1,1 0 0 1 0,2z"/>
  <ellipse id="svg_6" fill="#e6e6e6" ry="8.64507" rx="8.45661" cy="48.60301" cx="91.51486"/>
  <ellipse id="svg_7" fill="#e6e6e6" ry="8.64507" rx="8.45661" cy="48.60301" cx="120.72861"/>
  <ellipse id="svg_8" fill="#e6e6e6" ry="8.64507" rx="8.45661" cy="48.60301" cx="149.94237"/>
  <path id="svg_9" fill="#e6e6e6" d="m183.25379,55.4358a0.9967,0.9967 0 0 1 -0.71485,-0.30078l-5.70605,-5.833a0.99954,0.99954 0 0 1 0,-1.39844l5.70605,-5.83251a1,1 0 1 1 1.42969,1.39843l-5.022,5.1333l5.022,5.13379a1,1 0 0 1 -0.71484,1.69922l0,-0.00001z"/>
  <path id="svg_10" fill="#e6e6e6" d="m192.84217,55.4358a1,1 0 0 1 -0.71485,-1.69922l5.02149,-5.13379l-5.02149,-5.1333a1,1 0 0 1 1.42969,-1.39843l5.70557,5.83251a0.99954,0.99954 0 0 1 0,1.39844l-5.70557,5.833a0.9967,0.9967 0 0 1 -0.71484,0.30079z"/>
  <path id="svg_11" fill="#e6e6e6" d="m579.352,40.95884l-10.61,0a2.18935,2.18935 0 0 0 -2.19,2.19l0,10.62a2.18936,2.18936 0 0 0 2.19,2.19l10.61,0a2.19791,2.19791 0 0 0 2.2,-2.19l0,-10.62a2.1979,2.1979 0 0 0 -2.2,-2.19z"/>
  <path id="svg_12" fill="#e6e6e6" d="m553.352,40.95884l-10.61,0a2.18935,2.18935 0 0 0 -2.19,2.19l0,10.62a2.18936,2.18936 0 0 0 2.19,2.19l10.61,0a2.19791,2.19791 0 0 0 2.2,-2.19l0,-10.62a2.1979,2.1979 0 0 0 -2.2,-2.19z"/>
  <path id="svg_13" fill="#e6e6e6" d="m603.852,41.45884l-10.61,0a2.18935,2.18935 0 0 0 -2.19,2.19l0,10.62a2.18936,2.18936 0 0 0 2.19,2.19l10.61,0a2.19791,2.19791 0 0 0 2.2,-2.19l0,-10.62a2.1979,2.1979 0 0 0 -2.2,-2.19z"/>
  <path id="svg_14" fill="#e6e6e6" d="m388.9303,45.49881l-84.81,0a2.67,2.67 0 1 0 0,5.34l84.81,0a2.67,2.67 0 0 0 0,-5.34z"/>
  <path id="svg_15" fill="#64ffda" d="m161.60743,409.44634l-50.717,-1.60323c-7.03419,-0.22236 -14.94447,-0.211 -19.96166,3.42421c-5.6943,4.12585 -4.83213,11.43535 -0.10431,16.17646s12.277,7.44976 19.68637,9.652c39.36385,11.7 82.92866,14.07521 125.229,11.42782s83.73,-10.13147 124.95545,-17.59027c3.91,-0.70743 8.3414,-1.7253 9.93587,-4.44631c1.54247,-2.63224 -0.47577,-5.80651 -3.61075,-7.50776s-7.10942,-2.27452 -10.94329,-2.78084a1027.70791,1027.70791 0 0 0 -209.50054,-5.976"/>
  <path id="svg_16" fill="#ffffff" d="m252.73,371.44l0,-12c-8.70812,0.12331 -39.87043,-0.08886 -48,0.00027c-0.605,41.94091 -4.31337,33.72515 30.04795,33.88847a5.97483,5.97483 0 0 1 5.95226,5.96665l0,0.18a5.965,5.965 0 0 1 -5.96511,5.96462l-30.0351,0l0,12l48,0c0.0674,-0.04016 -0.04859,-11.58721 0.00015,-12c2.02955,-34.76507 -1.98621,-22.26148 -31.16579,-23.65566a5.0949,5.0949 0 0 1 -4.83453,-5.09462l0,-0.1499a5.1001,5.1001 0 0 1 5.09983,-5.09981l30.90034,-0.00002z"/>
  <path id="svg_17" fill="#ffffff" d="m311.73,371.44l0,-12c-8.70812,0.12331 -39.87043,-0.08886 -48,0.00027c-0.61022,42.30528 -4.378,33.57862 30.95215,33.89466a5.1,5.1 0 0 1 5.04814,5.09957c-0.00006,0.63012 -0.00011,1.27547 -0.00015,1.90717a5.0988,5.0988 0 0 1 -5.09982,5.09833l-30.90032,0l0,12l48,0c0.0674,-0.04016 -0.04859,-11.58721 0.00015,-12c2.02955,-34.76507 -1.98621,-22.26148 -31.16579,-23.65566a5.0949,5.0949 0 0 1 -4.83453,-5.09462l0,-0.1499a5.1001,5.1001 0 0 1 5.09983,-5.09981l30.90034,-0.00001z"/>
  <path id="svg_18" fill="#ffffff" d="m190.73,371.44l0,-12l-48,0c-0.034,10.70325 0.0245,39.0319 -0.00007,49.99987c-9.40881,15.92872 44.04243,4.90065 48.00271,8.00441c-0.00264,-0.00428 -0.00264,-12.00428 -0.00264,-12.00428c-36.5211,-0.19074 -37.43887,6.6459 -36.264,-26.42981a7.84378,7.84378 0 0 1 7.83373,-7.57093c10.55827,0.00074 28.43027,0.00074 28.43027,0.00074z"/>
  <path id="svg_19" fill="#64ffda" d="m285.60743,267.11245l-50.717,-1.33642c-7.03419,-0.18536 -14.94447,-0.17591 -19.96166,2.85435c-5.6943,3.43922 -4.83213,9.53228 -0.10431,13.48439s12.277,6.21 19.68637,8.04575c39.36385,9.75291 82.92866,11.73282 125.229,9.526s83.73,-8.4454 124.95545,-14.66291c3.91,-0.5897 8.3414,-1.43818 9.93587,-3.70636c1.54247,-2.19419 -0.47577,-4.84019 -3.61075,-6.25832s-7.10942,-1.896 -10.94329,-2.31806a1231.4445,1231.4445 0 0 0 -209.50054,-4.98149"/>
  <path stroke-dasharray="5,2,2,2,2,2" id="svg_20" fill="#ffffff" d="m277.72986,214.44c-0.81725,18.52643 5.99213,24.3577 -17.501,21.99778c-1.58724,-11.0521 6.46193,-26.38959 -11.99874,-22.49565c3.69817,8.01754 -10.3027,68.844 11.99588,57.99455c1.25236,-18.27481 -7.00207,-26.29029 17.50448,-23.49444c1.96518,11.297 -7.2074,27.92118 11.99857,23.996c-3.69763,-8.02132 10.30337,-68.84224 -11.99919,-57.99824z"/>
  <path id="svg_21" fill="#ffffff" d="m399.72986,214.44c1.64714,1.01689 -15.09043,18.72384 -15.45157,20.1747c-0.50211,-1.23824 -16.47736,-18.56236 -14.5483,-20.174c-22.22954,-10.985 -8.37541,50.19481 -12.00424,58.002c0.00411,-0.00271 12.00411,-0.00271 12.00411,-0.00271l0,-37.99822c16.86715,22.74983 13.73491,18.92152 30.00031,-1.11688l-0.00031,39.11511c22.2288,10.98872 8.37573,-50.19873 12.00412,-58.0027c-0.00412,0.0027 -12.00412,0.0027 -12.00412,0.0027z"/>
  <path id="svg_22" fill="#ffffff" d="m346.72986,214.44l-48,0c-2.82037,16.82193 6.50508,11.1801 18.00167,11.99963l-0.00167,46.00037l12,0l0,-46c11.44335,-0.77818 20.85591,4.74779 18,-12z"/>
  <path id="svg_23" fill="#ffffff" d="m433.72986,260.44a128.27936,128.27936 0 0 1 0,-46l-12,0c0.06918,7.60291 -0.02139,38.28212 -0.01434,52.31169a5.71,5.71 0 0 0 5.7058,5.71268c12.08981,0.016 35.17,-0.07316 42.30866,-0.02419l-0.00012,-12.00018l-36,0z"/>
  <path id="svg_24" fill="#e6e6e6" d="m127.18115,262.44l-48.77415,0a9,9 0 0 0 0,18l48.77419,0a9,9 0 0 0 0,-18l-0.00004,0z"/>
  <polygon id="svg_25" fill="#ffb6b6" points="569.392 517.568 559.491 517.567 554.781 479.377 569.394 479.378 569.392 517.568"/>
  <path id="svg_26" fill="#2f2e41" d="m569.74065,527.89669l-30.447,-0.00115l0,-0.385a11.85147,11.85147 0 0 1 11.85083,-11.85065l0.00073,0l5.56152,-4.21924l10.37659,4.21991l2.65784,0.00006l-0.00051,12.23607z"/>
  <polygon id="svg_27" fill="#ffb6b6" points="604.392 517.568 594.491 517.567 589.781 479.377 604.394 479.378 604.392 517.568"/>
  <path id="svg_28" fill="#2f2e41" d="m604.74065,527.89669l-30.447,-0.00115l0,-0.385a11.85147,11.85147 0 0 1 11.85083,-11.85065l0.00073,0l5.56152,-4.21924l10.37659,4.21991l2.65784,0.00006l-0.00051,12.23607z"/>
  <path id="svg_29" fill="#2f2e41" d="m544.73947,309.48018s-9.5262,29.25813 -7.76785,33.109s4.75838,0.85082 1.75838,3.85082s-5.61884,-0.189 -2.80942,4.90551s7.06559,47.03407 8.93751,49.06428s4.44568,2.08468 2.15879,4.05745s-5.28688,-2.02724 -2.28688,1.97276s10.96063,96.27559 10.96063,96.27559l15.55114,0s3.87318,-4.46456 1.68071,-7.37008s0.19247,-4.02548 0,-5.96549s0.53674,-6.12277 0.67213,-8.03139s2.76354,-47.37757 -3.55054,-73.6431l11.51362,-50.01216l5.75679,60.44638s-6.41553,50.70183 0,67.001c0,0 -5.17233,4.30709 -2.87841,6.80315s4.29393,0.4961 2.29393,2.4961s3,9 3,9l17,-1l9.62205,-94.73447s1.622,-9.8797 0,-11.57261s-1.62205,4.30708 -1.62205,-1.69292l0,-8s7.25056,-49.20472 7.12528,-52.10236s-12.12528,-23.89764 -12.12528,-23.89764l-64.99053,-0.95982z"/>
  <path id="svg_30" fill="#e6e6e6" d="m595.01935,191.14728l-24.823,-1.70728l-7.42785,11.712l-17.88863,7.27293l0,57.69454a55.60033,55.60033 0 0 1 2.85013,17.32053c-0.06823,11.49453 -3.02253,25.03466 -2,28c10,29 65,0 65,0l-1,-31l1.3574,-70.05937l-11.23893,-8.96384l-4.82912,-10.26951z"/>
  <path id="svg_31" fill="#ffb6b6" d="m543.73253,322.00462l-1.71153,-18.24125l-10.55686,-0.47618l2.49569,19.2214a6.13324,6.13324 0 1 0 9.77265,-0.504l0.00005,0.00003z"/>
  <path id="svg_32" fill="#e6e6e6" d="m548.92783,206.88645l-0.29266,0.04951a16.98787,16.98787 0 0 0 -12.58455,9.62841c-3.02332,6.5379 -12.8398,49.51683 -8.53654,55.99808c3.3376,5.02689 2.52673,4.04615 0.95778,7.838s-4.0957,-0.25436 -2.02478,5.76366s4.34666,5.1593 2.42433,7.48456s-3.89421,1.86944 -2.02477,5.76366s1.56555,5.20879 1.91895,6.67532s0.04613,11.78169 0.04613,11.78169s11.27634,-0.85538 16.888,1.82668c0,0 -3.13114,-10.41759 -1.36073,-12.08558s3.89423,-1.86945 2.37818,-4.29714s-4.95445,-2.53012 -1.21216,-3.74229s2.5369,-22.95558 2.5369,-22.95558c6.16331,-16.1405 3.728,-42.68855 0.88592,-69.72898z"/>
  <path id="svg_33" fill="#ffb6b6" d="m616.92228,323.30641l0.78906,-18.30436l10.51939,-1.00815l-1.52282,19.32283a6.13324,6.13324 0 1 1 -9.78563,-0.01032z"/>
  <path id="svg_34" fill="#e6e6e6" d="m605.92612,208.59691l0.29478,0.03468a16.9879,16.9879 0 0 1 13.05426,8.98129c3.34929,6.37706 13.94508,49.56879 11.35067,55.49615c-2.41947,5.52769 -2.3194,4.16845 -0.56116,7.87628s4.07765,-0.46066 2.313,5.65418s-4.08085,5.372 -2.04366,7.59733s3.98356,1.6706 2.313,5.65417s-1.30078,5.28114 -1.57975,6.76363s0.54829,11.769 0.54829,11.769s-11.30514,-0.28542 -16.77439,2.67632c0,0 2.60161,-10.56228 0.74931,-12.13883s-3.98358,-1.67062 -2.59193,-4.17169s4.8205,-2.77685 1.02182,-3.79868s-3.6917,-22.79838 -3.6917,-22.79838l-4.40254,-69.59545z"/>
  <circle id="svg_35" fill="#ffb6b6" r="19.36219" cy="166.41031" cx="583.21719"/>
  <path id="svg_36" fill="#2f2e41" d="m596.69186,182.98408c2.69286,-2.10746 2.95426,-6.12449 5.25223,-8.65672c3.8421,-4.23373 5.64722,-8.78866 3.63458,-13.80527c-1.78015,-4.437 -1.40178,-9.89125 -5.23573,-12.74732c1.883,-0.68165 2.32615,-2.09722 0.66469,-2.12336c-1.12042,-0.01762 -5.29722,2.12375 -3.28744,-0.54383s-1.7946,-1.61462 -1.543,-2.70656s1.8652,-1.69671 2.57686,-0.83115a5.6397,5.6397 0 0 0 -8.84591,1.01189c-2.26458,-3.39392 -4.66838,-5.72925 -8.13365,-3.57547c-3.40345,2.11532 -3.359,4.73016 -7.01886,4.10174c-1.72058,-0.29541 -1.88315,2.95523 -3.05854,4.246a5.24691,5.24691 0 0 1 -4.609,1.96555c-1.7154,-0.32418 -3.02709,-2.46193 -2.06587,-3.91923l-4.043,9.22356l-1.62943,-1.99866c-2.58913,1.68734 -1.73874,6.09027 0.86747,7.7511s5.993,1.30585 8.99444,0.56967a35.27556,35.27556 0 0 1 11.05161,-0.91662c5.6662,0.80049 9.61278,7.57467 7.51461,12.89861c2.177,-2.13776 6.20431,-0.36368 7.3321,2.47138s0.30082,6.02913 -0.5352,8.96351"/>
 </g>
</svg>